HIERARCHY
ROOT Hips
{
	OFFSET 0.00000 0.00000 0.00000
	CHANNELS 6 Xposition Yposition Zposition Zrotation Yrotation Xrotation 
	JOINT LHipJoint
	{
		OFFSET 0 0 0
		CHANNELS 3 Zrotation Yrotation Xrotation
		JOINT LeftHip
		{
			OFFSET 1.56857 -1.73443 1.15205
			CHANNELS 3 Zrotation Yrotation Xrotation
			JOINT LeftKnee
			{
				OFFSET 2.39362 -6.57643 0.00000
				CHANNELS 3 Zrotation Yrotation Xrotation
				JOINT LeftAnkle
				{
					OFFSET 2.50952 -6.89485 0.00000
					CHANNELS 3 Zrotation Yrotation Xrotation
					JOINT LeftToe
					{
						OFFSET 0.17171 -0.47178 1.88682
						CHANNELS 3 Zrotation Yrotation Xrotation
						End Site
						{
							OFFSET 0.00000 -0.00000 0.98146
						}
					}
				}
			}
		}
	}
	JOINT RHipJoint
	{
		OFFSET 0 0 0
		CHANNELS 3 Zrotation Yrotation Xrotation
		JOINT RightHip
		{
			OFFSET -1.28153 -1.73443 1.15205
			CHANNELS 3 Zrotation Yrotation Xrotation
			JOINT RightKnee
			{
				OFFSET -2.26861 -6.23296 0.00000
				CHANNELS 3 Zrotation Yrotation Xrotation
				JOINT RightAnkle
				{
					OFFSET -2.54143 -6.98254 0.00000
					CHANNELS 3 Zrotation Yrotation Xrotation
					JOINT RightToe
					{
						OFFSET -0.23309 -0.64041 1.93119
						CHANNELS 3 Zrotation Yrotation Xrotation
						End Site
						{
							OFFSET -0.00000 -0.00000 1.02013
						}
					}
				}
			}
		}
	}
	JOINT lowerback
	{
		OFFSET 0 0 0
		CHANNELS 3 Zrotation Yrotation Xrotation
		JOINT Chest
		{
			OFFSET -0.07096 2.10460 -0.27878
			CHANNELS 3 Zrotation Yrotation Xrotation
			JOINT Chest2
			{
				OFFSET -0.00826 2.13662 -0.08279
				CHANNELS 3 Zrotation Yrotation Xrotation
				JOINT lowerneck
				{
					OFFSET 0 0 0
					CHANNELS 3 Zrotation Yrotation Xrotation
					JOINT Neck
					{
						OFFSET 0.03239 1.77799 0.24435
						CHANNELS 3 Zrotation Yrotation Xrotation
						JOINT Head
						{
							OFFSET 0.01026 1.74194 -0.49664
							CHANNELS 3 Zrotation Yrotation Xrotation
							End Site
							{
								OFFSET 0.00170 1.83057 -0.19653
							}
						}
					}
				}
				JOINT LeftCollar
				{
					OFFSET 0 0 0
					CHANNELS 3 Zrotation Yrotation Xrotation
					JOINT LeftShoulder
					{
						OFFSET 3.19178 1.35907 -0.31412
CHANNELS 3 Zrotation Xrotation Yrotation
						JOINT LeftElbow
						{
OFFSET 0 -4.852470 -0.000000
CHANNELS 3 Zrotation Xrotation Yrotation
							JOINT LeftWrist
							{
OFFSET 0 -3.555840 0.000000
CHANNELS 3 Zrotation Xrotation Yrotation
								JOINT lhand
								{
									OFFSET 0 0 0
CHANNELS 3 Zrotation Xrotation Yrotation
									JOINT LFingers
									{
OFFSET 0 -0.693200 0.000000
CHANNELS 3 Zrotation Xrotation Yrotation
										End Site
										{
OFFSET 0 -0.558880 0.000000
										}
									}
								}
								JOINT LThumb
								{
OFFSET 0 0.000000 0.000000
CHANNELS 3 Zrotation Xrotation Yrotation
									End Site
									{
OFFSET 0 -0.567410 0.567410
									}
								}
							}
						}
					}
				}
				JOINT RightCollar
				{
					OFFSET 0 0 0
					CHANNELS 3 Zrotation Yrotation Xrotation
					JOINT RightShoulder
					{
						OFFSET -3.28999 1.24191 -0.26899
CHANNELS 3 Zrotation Xrotation Yrotation
						JOINT RightElbow
						{
OFFSET 0 -4.644620 0.000000
CHANNELS 3 Zrotation Xrotation Yrotation
							JOINT RightWrist
							{
OFFSET 0 -3.407030 0.000000
CHANNELS 3 Zrotation Xrotation Yrotation
								JOINT rhand
								{
									OFFSET 0 0 0
CHANNELS 3 Zrotation Xrotation Yrotation
									JOINT RFingers
									{
OFFSET 0 -0.619580 0.000000
CHANNELS 3 Zrotation Xrotation Yrotation
										End Site
										{
OFFSET 0 -0.499520 0.000000
										}
									}
								}
								JOINT RThumb
								{
OFFSET 0 0.000000 0.000000
CHANNELS 3 Zrotation Xrotation Yrotation
									End Site
									{
OFFSET 0 -0.507150 0.507150
									}
								}
							}
						}
					}
				}
			}
		}
	}
}
MOTION
Frames: 9
Frame Time: 0.008333333333333333
-30.674900 16.772800 1.495300 51.633000 85.501000 51.935500 0.000000 0.000000 0.000000 -16.468300 4.870600 9.229500 0.052000 1.471100 4.046000 0.994800 7.496900 -22.974100 1.400900 -7.487300 -21.167300 0.000000 0.000000 0.000000 10.327800 -6.828400 5.345400 -0.114600 -2.182500 6.010400 -1.449100 6.620200 -21.553800 -0.158800 -2.567700 7.077500 -4.167800 1.840400 4.507700 -0.822900 2.290100 1.542000 1.363900 1.155900 -1.067200 4.306500 1.601900 -22.307100 -2.301400 1.839100 28.777800 -1.277600 1.100500 13.517000 0.000000 -0.000000 0.000000 5.425600 2.346300 -36.721900 11.796800 -19.499200 2.034000 17.715200 8.423400 29.220600 0.000000 0.000000 0.000000 -7.125000 0.000000 0.000000 -7.598900 -0.206100 -7.694100 0.000000 -0.000000 0.000000 -2.694100 3.925300 33.051000 -17.223700 -27.151700 -4.188900 -14.825500 7.312800 27.702600 0.000000 0.000000 0.000000 7.125000 0.000000 -0.000000 17.293000 57.641300 -5.460700
-30.661213 16.769297 1.497663 53.320144 85.364947 53.625332 0.000000 0.000000 0.000000 -16.626839 5.079568 9.175486 0.054363 1.504095 4.137082 1.018752 7.305366 -23.038868 1.485628 -7.699853 -21.806425 0.000000 0.000000 0.000000 10.108485 -6.875978 5.326418 -0.118836 -2.222664 6.121524 -1.476311 6.642034 -21.759672 -0.141366 -2.421952 6.673413 -4.357786 1.820603 4.442362 -0.867545 2.263297 1.621351 1.429401 1.140176 -0.952736 4.279615 1.565402 -22.299035 -2.247712 1.793885 28.989701 -1.260654 1.091294 13.602135 0.000000 0.000000 0.000000 5.637257 2.108003 -37.533740 11.792808 -19.493253 2.032615 18.942451 8.457536 29.046989 0.000000 0.000000 0.000000 -7.125000 0.000000 0.000000 -6.863886 -0.249279 -6.943932 0.000000 0.000000 0.000000 -2.753735 3.894749 33.201066 -17.300525 -27.252233 -4.224013 -15.263559 7.166726 27.088404 0.000000 0.000000 0.000000 7.125000 0.000000 0.000000 16.464541 57.143442 -4.992334
-30.647212 16.766045 1.500403 54.008143 85.296174 54.318412 0.000000 0.000000 0.000000 -16.762720 5.048553 9.332693 0.051816 1.468550 4.039036 1.038739 7.345193 -23.237065 1.590748 -7.953945 -22.575203 0.000000 0.000000 0.000000 10.016557 -6.926514 5.271120 -0.125276 -2.281584 6.284572 -1.510319 6.768219 -22.010860 -0.130288 -2.325799 6.406972 -4.409623 1.808170 4.387723 -0.915589 2.251850 1.703975 1.413146 1.132068 -0.836447 4.277465 1.536393 -22.350068 -2.178415 1.739921 29.201791 -1.243268 1.082529 13.700173 0.000000 0.000000 0.000000 5.913111 1.856552 -38.224423 11.877559 -19.620735 2.061063 18.889790 8.749151 29.114747 0.000000 0.000000 0.000000 -7.125000 0.000000 0.000000 -6.902382 -0.307814 -6.990374 0.000000 0.000000 0.000000 -2.773216 3.901835 33.336153 -17.433051 -27.424956 -4.284931 -15.678458 6.975966 26.524182 0.000000 0.000000 0.000000 7.125000 0.000000 0.000000 15.706635 56.684040 -4.579480
-30.637691 16.764200 1.506629 53.769427 85.334694 54.136726 0.000000 0.000000 0.000000 -16.735261 4.919525 9.436941 0.049867 1.440891 3.962794 1.071990 7.386751 -23.544933 1.637303 -8.065730 -22.913835 0.000000 0.000000 0.000000 10.174447 -6.774669 5.187323 -0.132585 -2.346692 6.464862 -1.552456 6.722631 -22.327170 -0.126056 -2.288300 6.303090 -4.380595 1.776234 4.353331 -0.907259 2.214240 1.742933 1.409499 1.111815 -0.774241 4.292900 1.531216 -22.352646 -2.163051 1.734139 29.385516 -1.241517 1.088903 13.778917 0.000000 0.000000 0.000000 6.160528 1.639151 -38.758736 11.992479 -19.793275 2.099804 18.218975 9.185098 29.295535 0.000000 0.000000 0.000000 -7.125000 0.000000 0.000000 -7.312991 -0.371138 -7.421369 0.000000 0.000000 0.000000 -2.836428 3.988568 33.524204 -17.609465 -27.653927 -4.366591 -15.652543 6.673064 26.361860 0.000000 0.000000 0.000000 7.125000 0.000000 0.000000 15.638455 56.521676 -4.494443
-30.637293 16.764761 1.518389 51.107740 85.549938 51.614223 0.000000 0.000000 0.000000 -16.294218 4.828528 9.301939 0.052184 1.472338 4.049530 1.135711 7.234617 -23.961796 1.563080 -7.883241 -22.363284 0.000000 0.000000 0.000000 10.821367 -6.148315 5.098341 -0.140779 -2.417532 6.661144 -1.616709 6.221097 -22.835172 -0.116348 -2.192730 6.038821 -4.178760 1.740004 4.369824 -0.801621 2.171850 1.718482 1.406655 1.090783 -0.803241 4.335565 1.538810 -22.296044 -2.221377 1.764819 29.547333 -1.267207 1.104025 13.838571 0.000000 0.000000 0.000000 6.364296 1.444293 -39.166671 12.098999 -19.952882 2.135924 17.546947 9.634188 29.424893 0.000000 0.000000 0.000000 -7.125000 0.000000 0.000000 -7.718251 -0.383138 -7.840983 0.000000 0.000000 0.000000 -2.947142 4.126546 33.772041 -17.803955 -27.905245 -4.457203 -15.363609 6.287527 26.341053 0.000000 0.000000 0.000000 7.125000 0.000000 0.000000 15.923942 56.442096 -4.548436
-30.645728 16.767367 1.534775 45.071871 85.947192 45.784256 0.000000 0.000000 0.000000 -15.335325 4.894589 8.886409 0.059645 1.575225 4.333073 1.238853 6.763801 -24.471217 1.349602 -7.352796 -20.765599 0.000000 0.000000 0.000000 12.021006 -4.971702 5.039187 -0.150048 -2.495824 6.878128 -1.713233 5.198222 -23.622756 -0.087055 -1.901368 5.233264 -3.726110 1.731818 4.450906 -0.612228 2.171495 1.651638 1.344617 1.092175 -0.908861 4.418124 1.533049 -22.239547 -2.327510 1.777270 29.712718 -1.322364 1.109269 13.900164 0.000000 0.000000 0.000000 6.566590 1.222829 -39.530863 12.179474 -20.073206 2.163462 17.370536 9.944080 29.363081 0.000000 0.000000 0.000000 -7.125000 0.000000 0.000000 -7.814438 -0.290288 -7.927975 0.000000 0.000000 0.000000 -3.055418 4.249347 34.040538 -17.989081 -28.143080 -4.544081 -15.331394 5.914759 25.910517 0.000000 0.000000 0.000000 7.125000 0.000000 0.000000 15.715746 56.017624 -4.324435
-30.628294 16.762560 1.538930 46.070846 85.932691 46.808567 0.000000 0.000000 0.000000 -15.282370 5.226087 8.743430 0.063474 1.625410 4.471407 1.340363 6.075061 -24.825200 1.181042 -6.894695 -19.404739 0.000000 0.000000 0.000000 12.037707 -4.851942 5.071204 -0.155018 -2.537129 6.992673 -1.766840 5.135246 -24.012667 -0.068806 -1.690281 4.650597 -3.761712 1.707622 4.389967 -0.649133 2.143714 1.724145 1.331501 1.076370 -0.798634 4.499348 1.506979 -22.275556 -2.377532 1.733684 29.874841 -1.365217 1.096723 13.977396 0.000000 0.000000 0.000000 6.843748 0.930355 -40.009575 12.252389 -20.181968 2.188555 17.855603 9.804116 29.246417 0.000000 0.000000 0.000000 -7.125000 0.000000 0.000000 -7.519846 -0.256886 -7.619370 0.000000 0.000000 0.000000 -3.114402 4.348576 34.259445 -18.185177 -28.393516 -4.637038 -15.739473 5.671411 25.282960 0.000000 0.000000 0.000000 7.125000 0.000000 0.000000 14.962075 55.487749 -3.916682
-30.611140 16.759089 1.546599 46.262611 86.020804 46.920243 0.000000 0.000000 0.000000 -15.154985 5.279191 8.921860 0.062665 1.614799 4.442256 1.396962 5.812381 -25.098357 1.107507 -6.685610 -18.787412 0.000000 0.000000 0.000000 12.088636 -5.017184 5.137871 -0.159495 -2.573233 7.092741 -1.792333 5.380254 -24.164668 -0.091672 -1.944192 5.351664 -3.748678 1.686518 4.478662 -0.621167 2.116074 1.806071 1.353245 1.061619 -0.763047 4.485971 1.484634 -22.241774 -2.309126 1.691574 29.957263 -1.343408 1.089869 14.003252 0.000000 0.000000 0.000000 7.089559 0.669087 -40.478729 12.340274 -20.312868 2.218989 18.590950 9.450138 29.181482 0.000000 0.000000 0.000000 -7.125000 0.000000 0.000000 -7.084124 -0.322022 -7.178842 0.000000 0.000000 0.000000 -3.162140 4.504946 34.329421 -18.391605 -28.655479 -4.735687 -16.055972 5.564764 24.984332 0.000000 0.000000 0.000000 7.125000 0.000000 0.000000 14.484690 55.257916 -3.705443
-30.595998 16.757124 1.557829 46.966458 86.113241 47.574008 0.000000 0.000000 0.000000 -15.131784 5.059707 9.227103 0.057856 1.550782 4.265761 1.412154 5.931388 -25.286507 1.113267 -6.702620 -18.837460 0.000000 0.000000 0.000000 12.243137 -4.881865 5.316871 -0.161307 -2.587653 7.132799 -1.836020 5.300724 -24.478520 -0.139041 -2.383323 6.567185 -3.796320 1.656746 4.589722 -0.598816 2.072102 1.858754 1.402894 1.039480 -0.770857 4.525128 1.471111 -22.168679 -2.289255 1.659584 30.008007 -1.348209 1.086251 14.008458 0.000000 0.000000 0.000000 7.350514 0.453670 -40.907909 12.467701 -20.502099 2.263522 18.748975 9.336702 29.214468 0.000000 0.000000 0.000000 -7.125000 0.000000 0.000000 -6.995716 -0.383328 -7.095427 0.000000 0.000000 0.000000 -3.175122 4.714659 34.363689 -18.617687 -28.940443 -4.844661 -16.222097 5.455705 24.755854 0.000000 0.000000 0.000000 7.125000 0.000000 0.000000 14.200116 55.066154 -3.563413
